<?xml version="1.0" standalone="no"?>
<!DOCTYPE svg PUBLIC "-//W3C//DTD SVG 20010904//EN"
 "http://www.w3.org/TR/2001/REC-SVG-20010904/DTD/svg10.dtd">
<svg version="1.0" xmlns="http://www.w3.org/2000/svg"
 width="500.000000pt" height="500.000000pt" viewBox="0 0 500.000000 500.000000"
 preserveAspectRatio="xMidYMid meet">

<g transform="translate(0.000000,500.000000) scale(0.100000,-0.100000)"
fill="#000000" stroke="none">
<path d="M1470 2650 l0 -430 85 0 c84 0 85 0 85 25 0 25 14 33 25 15 17 -27
86 -50 152 -50 57 0 76 5 121 31 215 123 148 477 -97 506 -54 6 -151 -18 -171
-42 -7 -8 -16 -15 -21 -15 -5 0 -9 88 -9 195 l0 195 -85 0 -85 0 0 -430z m351
-73 c46 -31 61 -63 55 -117 -6 -63 -48 -100 -114 -100 -27 0 -57 7 -70 16 -47
32 -65 103 -39 154 16 33 73 70 107 70 15 0 42 -10 61 -23z"/>
<path d="M3819 2993 c4 -51 4 -51 -95 -8 l-51 22 22 -56 c12 -31 25 -64 28
-73 10 -29 35 -22 29 7 -2 14 -1 25 2 25 18 0 76 -30 76 -39 0 -6 7 -11 15
-11 11 0 15 12 15 50 0 34 4 50 13 50 28 0 312 -129 315 -144 5 -22 -36 -113
-85 -188 -71 -109 -177 -189 -316 -238 -81 -29 -18 -24 70 5 151 51 262 152
338 308 24 51 47 106 50 122 l6 30 -202 85 c-111 47 -209 88 -218 91 -13 6
-15 -1 -12 -38z"/>
<path d="M3945 2829 c-17 -8 -20 -18 -17 -64 3 -38 8 -55 17 -55 23 0 28 20 9
41 -37 41 34 78 78 40 24 -20 23 -35 -2 -28 -28 7 -35 -10 -14 -34 26 -29 6
-68 -35 -67 -17 1 -32 7 -35 15 -7 18 -26 17 -26 -2 0 -8 9 -19 19 -25 62 -32
141 15 141 85 0 47 -13 71 -50 90 -33 17 -56 18 -85 4z"/>
<path d="M3585 2800 l15 -29 -55 -3 -56 -3 52 -50 c47 -46 50 -47 35 -18 -21
42 -21 43 13 43 23 0 32 -6 40 -27 11 -27 11 -27 6 7 -2 19 -7 45 -11 58 -6
22 -6 22 114 22 l120 0 6 -32 c9 -49 -9 -151 -38 -213 -13 -30 -46 -78 -73
-107 -38 -41 -42 -47 -17 -30 48 33 94 90 123 152 20 45 26 74 29 158 l4 102
-161 0 -162 0 16 -30z"/>
<path d="M3970 2769 c0 -5 5 -7 10 -4 6 3 10 8 10 11 0 2 -4 4 -10 4 -5 0 -10
-5 -10 -11z"/>
<path d="M3707 2732 c-38 -41 -10 -112 44 -112 30 0 43 9 58 37 16 31 14 50
-9 73 -25 25 -72 26 -93 2z m74 -2 c5 0 9 -4 9 -10 0 -5 -7 -10 -15 -10 -8 0
-15 -4 -15 -9 0 -5 7 -11 15 -15 16 -6 21 -46 6 -46 -5 0 -15 -2 -23 -5 -7 -3
-20 0 -28 5 -13 9 -13 11 0 20 13 9 13 12 -2 21 -10 5 -18 16 -18 24 0 17 30
36 48 30 8 -3 18 -5 23 -5z"/>
<path d="M3220 2724 c-19 -8 -45 -25 -57 -36 l-23 -21 0 31 0 32 -165 0 -166
0 -37 -82 c-20 -46 -48 -107 -62 -137 l-26 -54 -59 137 -60 136 -64 -2 -64 -3
-57 -127 c-31 -71 -59 -130 -61 -133 -3 -2 -32 56 -65 130 l-59 135 -103 0
-104 0 35 -62 c19 -35 80 -150 137 -255 l102 -193 62 0 61 0 25 58 c13 31 39
91 58 132 l33 74 58 -129 58 -130 62 0 63 0 111 208 112 208 3 -340 2 -341 85
0 85 0 0 155 c0 85 3 155 7 155 3 0 14 -7 24 -16 44 -40 146 -55 221 -32 56
17 121 78 148 139 18 43 21 66 18 128 -6 114 -53 191 -143 232 -49 23 -146 24
-195 3z m132 -163 c33 -37 38 -105 11 -152 -18 -31 -67 -59 -103 -59 -36 0
-85 28 -103 59 -19 33 -22 102 -6 132 35 66 150 78 201 20z"/>
<path d="M3980 2699 c0 -5 5 -7 10 -4 6 3 10 8 10 11 0 2 -4 4 -10 4 -5 0 -10
-5 -10 -11z"/>
</g>
</svg>
