<svg xmlns="http://www.w3.org/2000/svg" width="512.001" height="512.001" shape-rendering="geometricPrecision" text-rendering="geometricPrecision" image-rendering="optimizeQuality" fill-rule="evenodd" clip-rule="evenodd" viewBox="0 0 13546.8 13546.8"><path fill-rule="nonzero" d="M6773.46 0c1870 0 3563.57 758.28 4789.32 1984.03 1225.75 1225.74 1984.03 2919.2 1984.03 4789.44 0 1870.24-758.28 3563.69-1984.03 4789.32-1225.62 1225.75-2919.08 1984.02-4789.32 1984.02-1870.24 0-3563.69-758.27-4789.44-1984.02C758.27 10337.05 0 8643.47 0 6773.47c0-1870.24 758.27-3563.69 1984.02-4789.44C3209.76 758.28 4903.22 0 6773.46 0zm-585.49 6438.4h331.56c324.78 0 564.69-54.29 718.61-163 155.02-107.49 232.04-278.35 232.04-510.39 0-229.74-79.32-393.82-236.51-491.16-158.52-97.34-402.89-145.95-734.58-145.95h-311.12v1310.51zm0 835.18v1860.45H5160.41V4285.94h1412.32c658.64 0 1145.21 119.95 1460.93 359.85 316.92 239.9 474.23 604.23 474.23 1092.01 0 285.24-78.11 538.69-235.42 761.66-156.23 221.88-377.99 396.13-665.42 521.65 728.78 1089.95 1204.1 1794.91 1424.77 2112.92H7891.08L6734.51 7273.58h-546.56zm4741.68-4656.42C9866.18 1553.68 8396.55 895.77 6773.46 895.77c-1623.21 0-3092.84 657.91-4156.31 1721.39C1553.68 3680.63 895.76 5150.26 895.76 6773.47c0 1623.09 657.92 3092.72 1721.39 4156.19 1063.47 1063.47 2533.1 1721.39 4156.31 1721.39 1623.21 0 3092.84-657.92 4156.19-1721.39 1063.48-1063.35 1721.39-2532.98 1721.39-4156.19 0-1623.21-657.91-3092.84-1721.39-4156.31z"/></svg>